<svg width="64" height="64" viewBox="0 0 64 64" fill="none" xmlns="http://www.w3.org/2000/svg">
<circle cx="7.99998" cy="10.4" r="6.4" fill="#EC5242"/>
<mask id="path-2-inside-1_4_37" fill="white">
<path fill-rule="evenodd" clip-rule="evenodd" d="M7.2 19.2C12.5019 19.2 16.8 14.9019 16.8 9.6C16.8 7.78011 16.2936 6.0785 15.414 4.62839C20.2508 1.69125 25.9279 0 32 0C49.6731 0 64 14.3269 64 32C64 49.6731 49.6731 64 32 64C14.3269 64 0 49.6731 0 32C0 27.0881 1.10669 22.4347 3.08431 18.2755C4.33165 18.8683 5.72709 19.2 7.2 19.2Z"/>
</mask>
<path fill-rule="evenodd" clip-rule="evenodd" d="M7.2 19.2C12.5019 19.2 16.8 14.9019 16.8 9.6C16.8 7.78011 16.2936 6.0785 15.414 4.62839C20.2508 1.69125 25.9279 0 32 0C49.6731 0 64 14.3269 64 32C64 49.6731 49.6731 64 32 64C14.3269 64 0 49.6731 0 32C0 27.0881 1.10669 22.4347 3.08431 18.2755C4.33165 18.8683 5.72709 19.2 7.2 19.2Z" fill="white"/>
<path d="M15.414 4.62839L14.5835 3.26079L13.2166 4.09085L14.046 5.45817L15.414 4.62839ZM3.08431 18.2755L3.7711 16.8304L2.32627 16.1437L1.63934 17.5884L3.08431 18.2755ZM15.2 9.6C15.2 14.0183 11.6183 17.6 7.2 17.6V20.8C13.3856 20.8 18.4 15.7856 18.4 9.6H15.2ZM14.046 5.45817C14.7781 6.66517 15.2 8.08088 15.2 9.6H18.4C18.4 7.47935 17.8091 5.49182 16.782 3.7986L14.046 5.45817ZM16.2445 5.99598C20.838 3.20656 26.2289 1.6 32 1.6V-1.6C25.6268 -1.6 19.6635 0.175941 14.5835 3.26079L16.2445 5.99598ZM32 1.6C48.7895 1.6 62.4 15.2105 62.4 32H65.6C65.6 13.4432 50.5568 -1.6 32 -1.6V1.6ZM62.4 32C62.4 48.7895 48.7895 62.4 32 62.4V65.6C50.5568 65.6 65.6 50.5568 65.6 32H62.4ZM32 62.4C15.2105 62.4 1.6 48.7895 1.6 32H-1.6C-1.6 50.5568 13.4432 65.6 32 65.6V62.4ZM1.6 32C1.6 27.3308 2.65157 22.9116 4.52929 18.9626L1.63934 17.5884C-0.438195 21.9577 -1.6 26.8454 -1.6 32H1.6ZM7.2 17.6C5.96965 17.6 4.80838 17.3234 3.7711 16.8304L2.39753 19.7206C3.85491 20.4132 5.48452 20.8 7.2 20.8V17.6Z" fill="black" mask="url(#path-2-inside-1_4_37)"/>
<path d="M13.8192 38.4H16.1869V27.424H13.8192V38.4ZM20.7223 38.4H23.0116L25.1911 31.0931L27.3706 38.4H29.6913L32.937 27.424H30.5537L28.4369 34.9347L26.1789 27.424H24.1876L21.9453 34.9347L19.8442 27.424H17.4609L20.7223 38.4ZM34.1848 38.4H41.821V36.3616H36.5368V33.8058H40.6136V31.7674H36.5368V29.4467H41.6485V27.424H34.1848V38.4ZM46.9787 38.5254C49.4405 38.5254 51.1026 37.2397 51.1026 35.1856C51.1026 30.8422 45.3323 32.6925 45.3323 30.4032C45.3323 29.7603 45.9125 29.3213 46.8376 29.3213C47.8882 29.3213 48.5467 29.8858 48.6251 30.7482H50.8674C50.8046 28.6627 49.2053 27.2986 46.8376 27.2986C44.611 27.2986 43.043 28.5843 43.043 30.4032C43.043 34.7152 48.7349 33.0688 48.7349 35.217C48.7349 36.048 48.0293 36.487 46.9787 36.487C45.8184 36.487 45.0814 35.7814 44.9874 34.6682H42.7294C42.8235 37.0045 44.4856 38.5254 46.9787 38.5254Z" fill="black"/>
</svg>
